<svg width="122" height="100" viewBox="0 0 122 100" fill="none" xmlns="http://www.w3.org/2000/svg">
<path d="M94.453 76.1702V70.8511H89.0997V76.1702H94.453ZM97.0133 86.8085V92.1277H102.345V86.8085H97.0133ZM102.345 84.0426V78.7234H97.0133V84.0426H102.345ZM102.345 76.1702V70.8511H97.0133V76.1702H102.345ZM62.3753 76.1702V70.8511H57.0431V76.1702H62.3753ZM62.3753 84.0426V78.7234H57.0431V84.0426H62.3753ZM70.2889 76.1702V70.8511H64.9356V76.1702H70.2889ZM70.2889 84.0426V78.7234H64.9356V84.0426H70.2889ZM78.4141 76.1702V70.8511H73.0608V76.1702H78.4141ZM78.4141 84.0426V78.7234H73.0608V84.0426H78.4141ZM78.4141 92.1277V86.8085H73.0608V92.1277H78.4141ZM86.3278 76.1702V70.8511H80.9956V76.1702H86.3278ZM86.3278 84.0426V78.7234H80.9956V84.0426H86.3278ZM86.3278 92.1277V86.8085H80.9956V92.1277H86.3278ZM94.453 86.8085H89.0997V92.1277H94.453V86.8085ZM94.453 78.7234H89.0997V84.0426H94.453V78.7234ZM22.2147 76.1702V70.8511H16.8614V76.1702H22.2147ZM22.2147 84.0426V78.7234H16.8614V84.0426H22.2147ZM22.2147 92.1277V86.8085H16.8614V92.1277H22.2147ZM30.3399 76.1702V70.8511H24.9866V76.1702H30.3399ZM30.3399 84.0426V78.7234H24.9866V84.0426H30.3399ZM30.3399 92.1277V86.8085H24.9866V92.1277H30.3399ZM38.2536 76.1702V70.8511H32.9214V76.1702H38.2536ZM38.2536 84.0426V78.7234H32.9214V84.0426H38.2536ZM38.2536 92.1277V86.8085H32.9214V92.1277H38.2536ZM46.3788 76.1702V70.8511H41.0466V76.1702H46.3788ZM46.3788 84.0426V78.7234H41.0466V84.0426H46.3788ZM70.3101 86.8085H41.0254V92.1277H70.3101V86.8085ZM48.9391 70.8511V76.1702H54.2712V70.8511H48.9391ZM48.9391 84.0426H54.2712V78.7234H48.9391V84.0426ZM107.699 65.532L113.031 97.4468H6.19702L11.5292 65.532H107.699Z" fill="white"/>
<path d="M102.346 86.8085H97.0134V92.1277H102.346V86.8085Z" fill="#0C6089"/>
<path d="M102.346 78.7234H97.0134V84.0426H102.346V78.7234Z" fill="#0C6089"/>
<path d="M102.346 70.8511H97.0134V76.1702H102.346V70.8511Z" fill="#0C6089"/>
<path d="M94.4529 86.8085H89.0996V92.1277H94.4529V86.8085Z" fill="#0C6089"/>
<path d="M94.4529 78.7234H89.0996V84.0426H94.4529V78.7234Z" fill="#0C6089"/>
<path d="M94.4529 70.8511H89.0996V76.1702H94.4529V70.8511Z" fill="#0C6089"/>
<path d="M86.3278 86.8085H80.9956V92.1277H86.3278V86.8085Z" fill="#0C6089"/>
<path d="M86.3278 78.7234H80.9956V84.0426H86.3278V78.7234Z" fill="#0C6089"/>
<path d="M86.3278 70.8511H80.9956V76.1702H86.3278V70.8511Z" fill="#0C6089"/>
<path d="M78.4354 86.8085H73.082V92.1277H78.4354V86.8085Z" fill="#0C6089"/>
<path d="M78.4354 78.7234H73.082V84.0426H78.4354V78.7234Z" fill="#0C6089"/>
<path d="M78.4354 70.8511H73.082V76.1702H78.4354V70.8511Z" fill="#0C6089"/>
<path d="M70.5216 86.8085H41.0254V92.1277H70.5216V86.8085Z" fill="#0C6089"/>
<path d="M70.3101 78.7234H64.9568V84.0426H70.3101V78.7234Z" fill="#0C6089"/>
<path d="M70.3101 70.8511H64.9568V76.1702H70.3101V70.8511Z" fill="#0C6089"/>
<path d="M62.3966 78.7234H57.0645V84.0426H62.3966V78.7234Z" fill="#0C6089"/>
<path d="M62.3966 70.8511H57.0645V76.1702H62.3966V70.8511Z" fill="#0C6089"/>
<path d="M54.2714 78.7234H48.9392V84.0426H54.2714V78.7234Z" fill="#0C6089"/>
<path d="M54.2714 70.8511H48.9392V76.1702H54.2714V70.8511Z" fill="#0C6089"/>
<path d="M46.3576 78.7234H41.0254V84.0426H46.3576V78.7234Z" fill="#0C6089"/>
<path d="M46.3576 70.8511H41.0254V76.1702H46.3576V70.8511Z" fill="#0C6089"/>
<path d="M38.2326 86.8085H32.9004V92.1277H38.2326V86.8085Z" fill="#0C6089"/>
<path d="M38.2326 78.7234H32.9004V84.0426H38.2326V78.7234Z" fill="#0C6089"/>
<path d="M38.2326 70.8511H32.9004V76.1702H38.2326V70.8511Z" fill="#0C6089"/>
<path d="M30.3611 86.8085H25.0078V92.1277H30.3611V86.8085Z" fill="#0C6089"/>
<path d="M30.3611 78.7234H25.0078V84.0426H30.3611V78.7234Z" fill="#0C6089"/>
<path d="M30.3611 70.8511H25.0078V76.1702H30.3611V70.8511Z" fill="#0C6089"/>
<path d="M22.2359 86.8085H16.8826V92.1277H22.2359V86.8085Z" fill="#0C6089"/>
<path d="M22.2359 78.7234H16.8826V84.0426H22.2359V78.7234Z" fill="#0C6089"/>
<path d="M22.2359 70.8511H16.8826V76.1702H22.2359V70.8511Z" fill="#0C6089"/>
<path d="M113.052 100H6.19718C5.3508 100 4.69486 99.5745 4.06007 99.1489C3.63689 98.5106 3.42529 97.6596 3.42529 97.0213L8.77863 65.1064C8.99022 63.8298 10.0694 62.9788 11.3389 62.9788H107.509C108.799 62.9788 109.857 63.8298 110.069 65.1064L115.422 96.8085V97.4468C115.845 98.7234 114.576 100 113.073 100H113.052ZM9.41341 94.6809H109.857L105.371 68.0851H13.878L9.39225 94.6809H9.41341Z" fill="#0C6089"/>
<path d="M110.471 68.0851H107.699C106.197 68.0851 104.927 66.8086 104.927 65.3192C104.927 63.8298 106.218 62.5532 107.699 62.5532H110.471C111.973 62.5532 113.243 61.9149 114.322 61.0639C115.38 60 115.824 58.7235 115.824 57.2341C115.824 54.2554 113.475 51.915 110.471 51.915H8.96897C6.83187 51.915 4.90636 51.0639 3.19245 49.5745C1.69013 48.0852 0.84375 45.9575 0.84375 43.8298C0.84375 39.3618 4.48317 35.7447 8.96897 35.7447H38.2536C38.8884 35.7447 39.5443 35.532 40.1791 34.8937C40.6023 34.4682 41.0255 33.8299 41.0255 32.9788C41.0255 31.4894 39.7348 30.2128 38.2536 30.2128H19.4429C17.3058 30.2128 15.3803 29.3618 13.6664 27.8724C12.164 26.383 11.3177 24.2554 11.3177 22.1277C11.3177 17.6597 14.9571 14.0426 19.4429 14.0426H54.2713C55.7736 14.0426 57.0432 15.3192 57.0432 16.8086C57.0432 18.298 55.7525 19.5745 54.2713 19.5745H19.6545C18.1522 19.5745 16.8826 20.8511 16.8826 22.3405C16.8826 22.9788 17.0942 23.6171 17.729 24.2554C18.1522 24.6809 18.7869 25.1065 19.6545 25.1065H38.2536C42.7394 25.1065 46.3788 28.7235 46.3788 33.1916C46.3788 35.3192 45.5325 37.2341 44.0301 38.9362C42.5278 40.4256 40.3907 41.2767 38.2536 41.2767H8.96897C7.46665 41.2767 6.19709 42.5533 6.19709 44.0426C6.19709 44.6809 6.40868 45.3192 7.04346 45.9575C7.67825 46.5958 8.10143 46.8086 8.96897 46.8086H110.471C116.459 46.8086 121.156 51.4894 121.156 57.4469C121.156 60.2128 120.098 62.9788 117.961 64.8937C115.824 66.8086 113.264 68.0851 110.471 68.0851Z" fill="#0C6089"/>
<path d="M64.3855 12.234H62.7986C62.7986 13.1149 63.5095 13.8298 64.3855 13.8298V12.234ZM64.3855 20.7447V19.1489C63.9647 19.1489 63.561 19.317 63.2634 19.6163C62.9658 19.9156 62.7986 20.3214 62.7986 20.7447H64.3855ZM102.473 12.234V13.8298C102.893 13.8298 103.297 13.6617 103.595 13.3624C103.892 13.0631 104.059 12.6572 104.059 12.234H102.473ZM102.473 20.7447H104.059C104.059 20.3214 103.892 19.9156 103.595 19.6163C103.297 19.317 102.893 19.1489 102.473 19.1489V20.7447ZM68.6174 3.19149H79.1971V0H68.6174V3.19149ZM79.1971 3.19149H98.2406V0H79.1971V3.19149ZM98.2406 29.7872H79.1971V32.9787H98.2406V29.7872ZM79.1971 29.7872H68.6174V32.9787H79.1971V29.7872ZM77.6102 1.59574V31.3829H80.7841V1.59574H77.6102ZM66.256 14.6085C66.5017 14.8555 66.6966 15.1487 66.8296 15.4714C66.9625 15.7941 67.031 16.14 67.031 16.4893C67.031 16.8387 66.9625 17.1846 66.8296 17.5073C66.6966 17.83 66.5017 18.1232 66.256 18.3702L68.4989 20.6255C69.5901 19.5282 70.2031 18.04 70.2031 16.4883C70.2031 14.9365 69.5901 13.4483 68.4989 12.3511L66.256 14.6085ZM100.602 18.3702C100.356 18.1232 100.161 17.83 100.028 17.5073C99.8955 17.1846 99.8271 16.8387 99.8271 16.4893C99.8271 16.14 99.8955 15.7941 100.028 15.4714C100.161 15.1487 100.356 14.8555 100.602 14.6085L98.3591 12.3532C97.2679 13.4505 96.6549 14.9387 96.6549 16.4904C96.6549 18.0422 97.2679 19.5304 98.3591 20.6276L100.602 18.3702ZM64.3855 13.8298C65.0648 13.8298 65.7397 14.0893 66.256 14.6085L68.4989 12.3511C67.9593 11.8071 67.3181 11.3777 66.6122 11.0835C65.9064 10.7892 65.1497 10.6379 64.3855 10.6383V13.8298ZM65.9725 12.234V5.85106H62.7986V12.234H65.9725ZM65.9725 27.1276V20.7447H62.7986V27.1276H65.9725ZM66.256 18.3702C66.0108 18.6177 65.7193 18.814 65.3982 18.9476C65.0772 19.0813 64.733 19.1497 64.3855 19.1489V22.3404C65.873 22.3404 67.3648 21.7681 68.501 20.6255L66.256 18.3702ZM100.602 14.6085C101.118 14.0893 101.793 13.8298 102.473 13.8298V10.6383C100.985 10.6383 99.4954 11.2106 98.3591 12.3532L100.602 14.6085ZM100.886 5.85106V12.234H104.059V5.85106H100.886ZM100.886 20.7447V27.1276H104.059V20.7447H100.886ZM102.473 19.1489C101.793 19.1489 101.118 18.8893 100.602 18.3702L98.3591 20.6276C98.8987 21.1717 99.5399 21.6011 100.246 21.8954C100.952 22.1897 101.708 22.3409 102.473 22.3404V19.1489ZM68.6174 29.7872C67.1574 29.7872 65.9725 28.5957 65.9725 27.1276H62.7986C62.7986 28.6794 63.4116 30.1677 64.5029 31.265C65.5941 32.3622 67.0742 32.9787 68.6174 32.9787V29.7872ZM98.2406 32.9787C99.7839 32.9787 101.264 32.3622 102.355 31.265C103.446 30.1677 104.059 28.6794 104.059 27.1276H100.886C100.886 28.5957 99.7006 29.7872 98.2406 29.7872V32.9787ZM98.2406 3.19149C99.7006 3.19149 100.886 4.38297 100.886 5.85106H104.059C104.059 4.29926 103.446 2.81102 102.355 1.71373C101.264 0.616449 99.7839 0 98.2406 0V3.19149ZM68.6174 0C67.0742 0 65.5941 0.616449 64.5029 1.71373C63.4116 2.81102 62.7986 4.29926 62.7986 5.85106H65.9725C65.9725 4.38297 67.1574 3.19149 68.6174 3.19149V0Z" fill="#4D940E"/>
</svg>
