<svg width="102" height="100" viewBox="0 0 102 100" fill="none" xmlns="http://www.w3.org/2000/svg">
<g clip-path="url(#clip0_0_122)">
<path d="M75.2656 58.7629H74.7666C73.5858 58.4303 72.9205 57.2664 73.2531 56.2687V56.1024C73.4195 55.271 74.2677 54.6059 75.2656 54.6059H75.7645C76.5961 54.7722 77.278 55.6036 77.278 56.6013V57.2664C76.9454 58.2641 76.0971 58.7629 75.2656 58.7629Z" fill="#0C6089"/>
<path d="M75.2656 41.6362C76.2801 41.6362 77.1117 42.3013 77.278 43.1327V43.299C77.4443 43.7978 77.278 44.4629 77.1117 44.7955C76.7791 45.2943 76.4464 45.6269 75.7645 45.7931H75.2656C74.2511 45.7931 73.4195 45.128 73.2532 44.2966V43.6315C73.2532 42.6338 73.9184 41.8024 74.7667 41.6362H75.2656Z" fill="#0C6089"/>
<path d="M78.2925 50.2827C78.2925 51.4466 77.278 52.278 76.1138 52.278C75.6149 52.278 75.0993 52.1117 74.6003 51.6129C74.2677 51.2803 73.9351 50.6152 73.9351 50.1164V49.9501V49.7838C73.9351 49.285 74.2677 48.7862 74.6003 48.4536C74.933 48.1211 75.4319 47.9548 75.9475 47.9548C76.962 47.9548 77.7936 48.6199 77.9599 49.4513C78.2925 50.1164 78.2925 50.2827 78.2925 50.2827Z" fill="#0C6089"/>
<path d="M73.7521 60.7582C74.4173 61.0908 74.7666 61.7559 74.7666 62.5873C74.7666 62.9198 74.6003 63.2524 74.434 63.585C74.434 63.585 74.434 63.7512 74.2677 63.7512C73.935 64.4163 73.2531 64.7489 72.4216 64.7489C72.0889 64.7489 71.7563 64.5826 71.407 64.4164C70.9081 64.0838 70.5754 63.7512 70.3925 63.0861C70.2262 62.5873 70.3925 61.9222 70.5588 61.5896C70.5588 61.5896 70.5588 61.4233 70.7251 61.4233C71.0578 60.7582 71.7397 60.4257 72.5712 60.4257C73.0702 60.4257 73.4028 60.5919 73.7521 60.7582Z" fill="#0C6089"/>
<path d="M74.6003 36.8141C75.0992 37.8118 74.7666 39.142 73.7687 39.6408C73.4361 39.8071 73.1034 39.9734 72.7542 39.9734C72.0889 39.9734 71.2407 39.6408 70.9081 38.9757V38.8094C70.7418 38.4769 70.5754 38.1443 70.5754 37.8118C70.5754 37.1467 70.9081 36.3153 71.59 35.9827C71.9226 35.8164 72.2552 35.6501 72.6045 35.6501C73.2698 35.6501 74.118 35.9827 74.4506 36.6478C74.5615 36.6478 74.6169 36.7032 74.6169 36.8141H74.6003Z" fill="#0C6089"/>
<path d="M70.3925 31.1606C70.7252 31.4932 71.0578 32.1583 71.0578 32.6571C71.0578 33.156 70.8915 33.6548 70.3925 34.1537C70.0599 34.4862 69.561 34.8188 68.8791 34.8188C68.3801 34.8188 67.6982 34.6525 67.3656 34.1537C67.0329 33.8211 66.7003 33.3223 66.7003 32.6571C66.7003 32.1583 66.8666 31.6595 67.3656 31.1606C67.6982 30.8281 68.1972 30.4955 68.8791 30.4955C69.2117 30.3292 69.8936 30.6618 70.3925 31.1606Z" fill="#0C6089"/>
<path d="M70.9081 67.742C70.9081 68.2408 70.7418 68.7396 70.2428 69.2385L70.0765 69.4047C69.7439 69.7373 69.2449 70.0698 68.563 70.0698C68.0641 70.0698 67.3822 69.9036 67.0495 69.4047C66.7169 69.0722 66.3843 68.4071 66.3843 67.9082C66.3843 67.4094 66.5506 66.9106 67.0495 66.4117L67.2159 66.2454C67.5485 65.9129 68.0474 65.5803 68.7293 65.5803C69.4112 65.5803 69.7439 65.7466 70.2428 66.2454C70.5754 66.7443 70.9081 67.2431 70.9081 67.742Z" fill="#0C6089"/>
<path d="M61.6609 27.5025C61.9935 26.8374 62.6754 26.5048 63.507 26.5048C63.8396 26.5048 64.1722 26.6711 64.5215 26.8374C64.5215 26.8374 64.6878 26.8374 64.6878 27.0037C65.1868 27.3362 65.5194 27.6688 65.7023 28.3339C65.8687 28.8327 65.7023 29.4978 65.536 29.8304C65.2034 30.4955 64.5215 30.8281 63.6899 30.8281C63.3573 30.8281 63.0247 30.6618 62.6754 30.4955H62.5091C61.8438 30.163 61.4946 29.4978 61.4946 28.6664C61.3282 28.1676 61.4945 27.8351 61.6609 27.5025Z" fill="#0C6089"/>
<path d="M62.5092 69.9036C62.8418 69.7373 63.1744 69.571 63.5237 69.571C64.1889 69.571 65.0372 69.9036 65.3698 70.5687C65.5361 70.9012 65.7024 71.2338 65.7024 71.5664C65.7024 72.2315 65.3698 73.0629 64.6879 73.3954H64.5216C64.1889 73.5617 63.8563 73.728 63.507 73.728C62.6755 73.728 61.9936 73.3954 61.6609 72.7303C61.3283 72.2315 61.3283 71.7326 61.4946 71.2338C61.4946 70.735 61.8273 70.2361 62.5092 69.9036C62.3983 69.9036 62.3983 69.9036 62.5092 69.9036Z" fill="#0C6089"/>
<path d="M59.6484 26.6711C59.3158 27.5025 58.6339 28.1676 57.636 28.1676H56.9708C56.1392 28.0013 55.4573 27.1699 55.4573 26.1723V25.6734C55.6236 24.842 56.4718 24.1769 57.4697 24.1769H58.135C58.6339 24.3432 59.1495 24.6757 59.4821 25.1746C59.8148 25.6734 59.8148 26.1723 59.6484 26.6711Z" fill="#0C6089"/>
<path d="M57.4697 72.0652C58.4842 72.0652 59.3158 72.7303 59.4821 73.5617V74.0605C59.4821 75.0582 58.8168 75.8896 57.9686 76.0559H57.3034C56.2888 76.0559 55.4573 75.3908 55.2909 74.5594C55.1246 74.0605 55.2909 73.3954 55.4573 73.0629C55.7899 72.564 56.1225 72.2315 56.8044 72.0652H56.9707C57.137 72.2315 57.3034 72.0652 57.4697 72.0652Z" fill="#0C6089"/>
<path d="M51.0832 23.1793C52.264 23.1793 53.0956 24.1769 53.0956 25.3409C53.0956 26.5048 52.081 27.3362 50.9168 27.3362H50.7505C49.5697 27.3362 48.7381 26.3386 48.5718 25.3409C48.5718 24.842 48.7381 24.3432 49.237 23.8444C49.5697 23.5118 50.0686 23.1793 50.7505 23.1793H51.0832Z" fill="#0C6089"/>
<path d="M52.4304 76.5547C52.0977 76.8873 51.5988 77.2198 50.9169 77.2198H50.7506C49.5697 77.2198 48.7382 76.2222 48.7382 75.0582C48.7382 73.8943 49.7527 73.0629 50.7506 73.0629H50.9169C52.0977 73.0629 53.0956 74.0605 53.0956 75.0582C53.0956 75.557 52.763 76.0559 52.4304 76.5547Z" fill="#0C6089"/>
<path d="M43.8651 24.0107H44.5304C45.5449 24.0107 46.3765 24.6758 46.5428 25.5072C46.8754 26.6711 46.2102 27.8351 45.0293 28.0013H44.364C43.3495 28.0013 42.5179 27.3362 42.3516 26.5048V26.006C42.1853 25.1746 42.8506 24.3432 43.8651 24.0107Z" fill="#0C6089"/>
<path d="M46.3765 74.7256C46.2101 75.557 45.3619 76.2221 44.364 76.2221H43.6988C43.1998 76.0559 42.6842 75.7233 42.3516 75.2245C42.019 74.7256 42.019 74.2268 42.1853 73.728C42.3516 72.8966 43.1998 72.2314 44.1977 72.2314H44.863C45.6946 72.3977 46.3765 73.2291 46.3765 74.2268C46.5428 74.3931 46.5428 74.5593 46.3765 74.7256Z" fill="#0C6089"/>
<path d="M39.3247 69.9036C39.9899 70.2361 40.3392 70.9012 40.3392 71.7326C40.3392 72.0652 40.1729 72.3977 40.0066 72.7303C39.6739 73.3954 38.992 73.728 38.1604 73.728C37.8278 73.728 37.4952 73.5617 37.1459 73.3954C37.1459 73.3954 36.9796 73.3954 36.9796 73.2291C35.9651 72.7303 35.6324 71.4001 36.3143 70.4024C36.647 69.7373 37.3289 69.4047 38.1604 69.4047C38.4931 69.4047 38.8257 69.571 39.175 69.7373L39.3413 69.9036H39.3247Z" fill="#0C6089"/>
<path d="M39.4909 30.1629C39.3246 30.3292 39.4909 30.3292 39.4909 30.1629L39.3246 30.3292C38.992 30.4955 38.6594 30.6618 38.3101 30.6618C37.6448 30.6618 36.7966 30.3292 36.464 29.6641C36.2977 29.3315 36.1313 28.999 36.1313 28.6664C36.1313 28.0013 36.464 27.1699 37.1459 26.8374L37.3122 26.6711C37.6448 26.5048 37.9775 26.3385 38.3267 26.3385C38.992 26.3385 39.8402 26.6711 40.1728 27.3362C40.8381 28.3339 40.5055 29.6641 39.5076 30.1629H39.4909Z" fill="#0C6089"/>
<path d="M35.2997 67.7419C35.2997 68.2408 35.1334 68.7396 34.6345 69.2384C34.3018 69.571 33.6199 69.9036 33.121 69.9036C32.622 69.9036 32.1065 69.7373 31.6075 69.2384L31.4412 69.0722C30.6096 68.2408 30.6096 66.9105 31.4412 66.0791C31.7738 65.7466 32.2894 65.414 32.9547 65.414C33.4536 65.414 34.1355 65.5803 34.4681 66.0791L34.6345 66.2454C34.9671 66.7443 35.2997 67.2431 35.2997 67.7419Z" fill="#0C6089"/>
<path d="M34.7842 30.8281C35.6158 31.6595 35.6158 32.9897 34.7842 33.8211L34.6179 33.9874C34.2852 34.3199 33.6033 34.6525 33.1044 34.6525C32.6055 34.6525 32.0899 34.4862 31.5909 33.9874C31.2583 33.6548 30.9257 33.156 30.9257 32.4909C30.9257 31.992 31.092 31.4932 31.5909 30.9944L31.7572 30.8281C32.0899 30.4955 32.5888 30.163 33.2707 30.163C33.7697 30.3292 34.2852 30.4955 34.7842 30.8281Z" fill="#0C6089"/>
<path d="M30.9257 38.6432C30.4268 39.4746 29.7449 39.8071 29.0796 39.8071C28.747 39.8071 28.4143 39.6409 28.0651 39.4746C27.3998 39.142 27.0505 38.4769 27.0505 37.6455C27.0505 37.313 27.2169 36.9804 27.3832 36.6478C27.3832 36.6478 27.3832 36.4816 27.5495 36.4816C27.8821 35.8164 28.564 35.4839 29.3956 35.4839C29.7282 35.4839 30.0609 35.6502 30.4101 35.8164C30.9091 36.149 31.2417 36.4816 31.4247 37.1467C31.4247 37.4792 31.2583 38.1443 30.9257 38.6432Z" fill="#0C6089"/>
<path d="M30.9257 61.5896C31.092 61.9222 31.2583 62.2547 31.2583 62.5873C31.2583 63.2524 30.9257 64.0838 30.2438 64.4164C29.9112 64.5826 29.5785 64.7489 29.2293 64.7489C28.564 64.7489 27.7158 64.4163 27.3832 63.7512C27.3832 63.7512 27.3832 63.585 27.2168 63.585C26.8842 63.0861 26.8842 62.5873 27.0505 62.0884C27.2168 61.5896 27.5495 61.0908 28.0651 60.7582C28.3977 60.5919 28.7303 60.4257 29.0796 60.4257C29.7449 60.4257 30.4267 60.7582 30.9257 61.5896C30.9257 61.4788 30.9257 61.4788 30.9257 61.5896Z" fill="#0C6089"/>
<path d="M26.5515 45.7931H26.0525C25.221 45.6269 24.5391 44.7955 24.5391 43.7978V43.1327C24.7054 42.3013 25.5536 41.6362 26.5515 41.6362H27.0504C28.2313 41.9687 28.8965 43.1327 28.5639 44.1303V44.2966C28.3976 45.128 27.5494 45.7931 26.5515 45.7931Z" fill="#0C6089"/>
<path d="M28.5806 55.9362V56.1024V56.6013C28.5806 57.5989 27.9153 58.4303 27.0671 58.5966H26.5681C25.5536 58.5966 24.722 57.9315 24.5557 57.1001V56.9338C24.3894 56.435 24.5557 55.7699 24.722 55.4373C25.0547 54.9385 25.3873 54.6059 26.0692 54.4396H26.5681C27.4163 54.2734 28.2479 54.9385 28.5806 55.9362Z" fill="#0C6089"/>
<path d="M27.8987 50.1164C27.8987 51.2804 26.8842 52.278 25.8863 52.278C24.7054 52.278 23.8738 51.2804 23.7075 50.2827V50.1164C23.7075 48.9525 24.722 48.1211 25.8863 48.1211C26.3852 48.1211 26.9008 48.2873 27.3997 48.7862C27.8987 49.285 28.065 49.7838 28.065 50.2827C27.8987 49.9501 27.8987 50.1164 27.8987 50.1164Z" fill="#0C6089"/>
<path d="M50.9168 19.0223C49.736 19.0223 48.7381 18.0246 48.7381 16.8606V6.38509L43.6987 10.2095C42.6842 10.8746 41.52 10.7083 40.6717 9.71066C40.0065 8.71299 40.1728 7.54904 41.1707 6.71765L49.5697 0.399058C50.2349 -0.0997783 51.0831 -0.0997783 51.7484 0.232779C52.4137 0.565336 52.9292 1.23045 52.9292 2.06184V16.8606C53.0956 18.0246 52.0977 19.0223 50.9168 19.0223Z" fill="#0C6089"/>
<path d="M59.3158 10.7083C58.8169 10.7083 58.4843 10.5421 58.135 10.2095L49.736 3.89092C48.7215 3.22581 48.5552 1.89558 49.2371 0.897905C49.9023 -0.0997672 51.2495 -0.266046 52.264 0.399069L60.663 6.71766C61.6775 7.38277 61.8438 8.713 61.1619 9.71068C60.663 10.3758 59.9811 10.7083 59.3158 10.7083Z" fill="#0C6089"/>
<path d="M50.9168 100C50.4179 100 50.0853 99.8337 49.5697 99.5012L41.1707 93.1826C40.1562 92.5175 39.9899 91.1872 40.6718 90.1896C41.337 89.1919 42.6842 89.0256 43.6987 89.6907L48.7381 93.5151V83.3721C48.7381 82.2082 49.7526 81.2105 50.9168 81.2105C52.0811 81.2105 53.0956 82.2082 53.0956 83.3721V98.0047C53.0956 98.836 52.5966 99.5012 51.9147 99.8337C51.5821 100 51.2495 100 50.9002 100H50.9168Z" fill="#0C6089"/>
<path d="M50.9168 100C50.2516 100 49.5697 99.6675 49.237 99.1686C48.5718 98.1709 48.7381 97.007 49.736 96.1756L58.135 89.857C59.1495 89.1919 60.3137 89.3582 61.1619 90.3559C61.8272 91.3535 61.6609 92.5175 60.663 93.3489L52.264 99.6675C51.7651 99.8337 51.4324 100 50.9168 100Z" fill="#0C6089"/>
<path d="M74.7666 28.6664C74.2677 28.6664 73.7521 28.5002 73.2531 28.0013C72.4215 27.1699 72.4215 25.8397 73.2531 25.0083L80.6376 17.692L74.4173 16.8607C73.2365 16.6944 72.4049 15.6967 72.5712 14.5327C72.7375 13.3688 73.7521 12.5374 74.9163 12.7037L85.3277 14.2002C86.1759 14.3665 86.8412 14.8653 87.0075 15.5304C87.1738 16.1955 87.0075 17.0269 86.5085 17.692L76.0971 28.0013C75.7645 28.5002 75.2655 28.6664 74.75 28.6664H74.7666Z" fill="#0C6089"/>
<path d="M86.5251 28.6664C85.5106 28.6664 84.679 27.8351 84.5127 26.8374L82.9992 16.5281C82.8329 15.3642 83.6645 14.3665 84.8453 14.2002C86.0262 14.0339 87.0241 14.8653 87.1904 16.0293L88.7039 26.3385C88.8702 27.5025 88.0386 28.5002 86.8577 28.6664H86.5251Z" fill="#0C6089"/>
<path d="M16.8221 86.0326C16.6558 86.0326 16.3232 86.0326 16.1568 85.8663C15.4916 85.7 14.8097 85.0349 14.8097 84.2035L13.2962 73.8943C13.1299 72.7303 13.9615 71.7326 15.1423 71.5664C16.3232 71.4001 17.3211 72.2315 17.4874 73.3954L18.319 79.5477L25.7034 72.2315C26.535 71.4001 27.8821 71.4001 28.7303 72.2315C29.5619 73.0629 29.5619 74.3931 28.7303 75.2245L18.319 85.5338C17.9863 85.8663 17.3044 86.0326 16.8055 86.0326H16.8221Z" fill="#0C6089"/>
<path d="M27.2334 87.5291H26.9008L16.4894 86.0326C15.3085 85.8663 14.4769 84.8686 14.6433 83.7047C14.8096 82.5407 15.8241 81.7093 16.9883 81.8756L27.3997 83.3721C28.5805 83.5384 29.4121 84.5361 29.2458 85.7C29.0795 86.6977 28.2313 87.5291 27.2334 87.5291Z" fill="#0C6089"/>
<path d="M99.2816 52.278H84.4961C83.3153 52.278 82.3174 51.2804 82.3174 50.1164C82.3174 48.9525 83.3319 47.9548 84.4961 47.9548H95.0738L91.2153 42.9664C90.55 41.9688 90.7163 40.8048 91.7142 39.9734C92.7288 39.3083 93.893 39.4746 94.7412 40.4722L101.128 48.7862C101.627 49.4513 101.627 50.2827 101.294 50.9478C100.795 51.7792 99.9469 52.278 99.2816 52.278Z" fill="#0C6089"/>
<path d="M92.9117 60.592C92.4128 60.592 92.0802 60.4257 91.7309 60.0931C90.7164 59.428 90.55 58.0978 91.2319 57.1001L97.6185 48.7862C98.2837 47.7885 99.6309 47.6222 100.645 48.2873C101.66 48.9525 101.826 50.2827 101.144 51.2804L94.7578 59.5943C94.2589 60.2594 93.577 60.592 92.9117 60.592Z" fill="#0C6089"/>
<path d="M17.321 52.278H2.53545C1.70387 52.278 1.02198 51.7792 0.689344 51.1141C0.356711 50.4489 0.356711 49.6176 0.85566 48.9524L7.2422 40.6385C7.90746 39.6408 9.25463 39.4746 10.2692 40.1397C11.2837 40.8048 11.45 42.135 10.7681 43.1327L6.90957 48.121H17.321C18.5018 48.121 19.4997 49.1187 19.4997 50.2827C19.4997 51.2803 18.4852 52.278 17.321 52.278Z" fill="#0C6089"/>
<path d="M8.92204 60.5919C8.25677 60.5919 7.57487 60.2594 7.24224 59.7605L0.855702 51.4466C0.190437 50.4489 0.356753 49.285 1.35465 48.4536C2.36918 47.6222 3.53339 47.9548 4.3816 48.9524L10.7681 57.2664C11.4334 58.264 11.2671 59.428 10.2692 60.2594C9.77025 60.4257 9.43762 60.5919 8.92204 60.5919Z" fill="#0C6089"/>
<path d="M85.1779 86.0326C84.679 86.0326 84.1634 85.8663 83.6645 85.3675L73.2531 75.0582C72.4215 74.2268 72.4215 72.8966 73.2531 72.0652C74.0847 71.2338 75.4318 71.2338 76.28 72.0652L83.6645 79.3815L84.496 73.3954C84.6624 72.2315 85.6769 71.4001 86.8411 71.5664C88.022 71.7326 88.8535 72.7303 88.6872 73.8943L87.1737 84.2035C87.0074 85.0349 86.5085 85.7 85.8266 85.8663C85.494 86.0326 85.3276 86.0326 85.1613 86.0326H85.1779Z" fill="#0C6089"/>
<path d="M74.7666 87.5291C73.7521 87.5291 72.9205 86.864 72.7542 85.7C72.5879 84.5361 73.4195 83.5384 74.6003 83.3721L85.0117 81.8756C86.1926 81.7093 87.1905 82.5407 87.3568 83.7047C87.5231 84.8686 86.6915 85.8663 85.5107 86.0326L75.0993 87.5291H74.7666Z" fill="#0C6089"/>
<path d="M27.2335 28.6664C26.7345 28.6664 26.219 28.5002 25.72 28.0013L15.3086 17.692C14.8097 17.1932 14.477 16.3618 14.8097 15.5304C14.976 14.8653 15.6413 14.2002 16.4895 14.2002L26.9009 12.7037C28.0817 12.5374 29.0796 13.3688 29.2459 14.5327C29.4122 15.6967 28.5807 16.6944 27.3998 16.8607L21.1796 17.692L28.564 25.0083C29.3956 25.8397 29.3956 27.1699 28.564 28.0013C28.2314 28.5002 27.7324 28.6664 27.2169 28.6664H27.2335Z" fill="#0C6089"/>
<path d="M15.3086 28.6664H14.9759C13.7951 28.5002 12.9635 27.5025 13.1298 26.3385L14.6433 16.0293C14.8096 14.8653 15.8241 14.0339 16.9884 14.2002C18.1692 14.3665 19.0008 15.3642 18.8345 16.5281L17.4873 26.8374C17.321 28.0013 16.3065 28.6664 15.3086 28.6664Z" fill="#0C6089"/>
<g clip-path="url(#clip1_0_122)">
<path d="M55.5765 39.3333C56.2362 39.3333 56.8856 39.4964 57.4669 39.8082C58.0483 40.1199 58.5435 40.5705 58.9085 41.12L59.0485 41.3493L61.7072 46H63.2565C63.3795 46 63.4986 46.0424 63.5939 46.1202C63.6891 46.1979 63.7546 46.3062 63.7792 46.4267L63.7898 46.5333V47.1667C63.79 47.3798 63.7263 47.588 63.607 47.7646C63.4877 47.9412 63.3183 48.078 63.1205 48.1573L62.9498 48.2107C63.4495 49.2483 63.6718 50.3976 63.5952 51.5467L63.5592 51.9293L62.5925 59.664C62.5164 60.2731 62.2326 60.8374 61.7888 61.2615C61.345 61.6856 60.7685 61.9436 60.1565 61.992L59.9458 62H58.4565C57.7837 62.0002 57.1357 61.7461 56.6424 61.2887C56.1491 60.8312 55.847 60.2042 55.7965 59.5333L55.7898 59.3333H45.1232C45.1234 60.0061 44.8693 60.6541 44.4118 61.1474C43.9544 61.6407 43.3274 61.9429 42.6565 61.9933L42.4565 62H40.9672C40.3532 62.0004 39.7578 61.7889 39.2817 61.4012C38.8056 61.0135 38.4779 60.4734 38.3538 59.872L38.3205 59.664L37.3538 51.9307C37.211 50.7868 37.3672 49.6255 37.8072 48.56L37.9632 48.2093L37.9312 48.2027C37.7243 48.1511 37.5376 48.0386 37.3952 47.8798C37.2529 47.7211 37.1613 47.5233 37.1325 47.312L37.1232 47.1667V46.5333C37.1231 46.4104 37.1656 46.2912 37.2433 46.196C37.3211 46.1007 37.4294 46.0353 37.5498 46.0107L37.6565 46H39.2072L41.8645 41.3493C42.1918 40.7764 42.6558 40.2934 43.2151 39.9433C43.7743 39.5932 44.4115 39.3868 45.0698 39.3427L45.3365 39.3333H55.5765ZM60.8032 50.048C60.1138 50.8036 59.1574 51.2612 58.1365 51.324L57.8618 51.3333H43.0512C42.4984 51.3369 41.9511 51.2244 41.4447 51.0029C40.9382 50.7815 40.4839 50.4562 40.1112 50.048C40.0011 50.4508 39.9548 50.8683 39.9738 51.2853L40.0005 51.5987L40.9672 59.3333H42.4565V58C42.4565 57.6734 42.5764 57.3582 42.7935 57.1142C43.0105 56.8701 43.3095 56.7142 43.6338 56.676L43.7898 56.6667H57.1232C57.4497 56.6667 57.7649 56.7866 58.009 57.0036C58.253 57.2206 58.409 57.5197 58.4472 57.844L58.4565 58V59.3333H59.9458L60.9125 51.5987C60.9792 51.076 60.9405 50.5493 60.8032 50.048ZM42.1058 52.5307L45.7632 54.5067C46.2605 54.776 46.0538 55.532 45.4885 55.5093L42.4032 55.3853C42.0591 55.3716 41.7337 55.2252 41.4951 54.9769C41.2565 54.7286 41.1232 54.3977 41.1232 54.0533V53.12C41.1231 53.0045 41.153 52.891 41.2101 52.7905C41.2671 52.6901 41.3492 52.6062 41.4484 52.547C41.5476 52.4879 41.6605 52.4555 41.776 52.4531C41.8915 52.4507 42.0056 52.4784 42.1072 52.5333L42.1058 52.5307ZM59.7885 53.1173V54.052C59.7888 54.3966 59.6556 54.7279 59.417 54.9765C59.1784 55.225 58.8528 55.3716 58.5085 55.3853L55.4232 55.508C54.8578 55.5307 54.6498 54.7747 55.1485 54.5053L58.8045 52.532C58.9061 52.477 59.0202 52.4494 59.1357 52.4518C59.2512 52.4542 59.364 52.4865 59.4632 52.5457C59.5624 52.6048 59.6446 52.6887 59.7016 52.7892C59.7586 52.8896 59.7886 53.0018 59.7885 53.1173ZM55.5765 42H45.3365C45.1015 42.0001 44.8707 42.0623 44.6674 42.1803C44.4642 42.2983 44.2957 42.4679 44.1792 42.672L41.8938 46.672C41.778 46.8748 41.7175 47.1044 41.7183 47.3378C41.7191 47.5713 41.7812 47.8005 41.8983 48.0025C42.0155 48.2044 42.1837 48.3721 42.386 48.4887C42.5883 48.6052 42.8177 48.6666 43.0512 48.6667H57.8618C58.0953 48.6666 58.3247 48.6052 58.527 48.4887C58.7293 48.3721 58.8975 48.2044 59.0147 48.0025C59.1319 47.8005 59.1939 47.5713 59.1947 47.3378C59.1955 47.1044 59.135 46.8748 59.0192 46.672L56.7338 42.672C56.6172 42.4677 56.4485 42.298 56.245 42.18C56.0415 42.0619 55.8104 41.9999 55.5752 42H55.5765Z" fill="#4D940E"/>
</g>
</g>
<defs>
<clipPath id="clip0_0_122">
<rect width="101.087" height="100" fill="white" transform="translate(0.456543)"/>
</clipPath>
<clipPath id="clip1_0_122">
<rect width="32" height="32" fill="white" transform="translate(34.4565 34)"/>
</clipPath>
</defs>
</svg>
