<svg width="141" height="100" viewBox="0 0 141 100" fill="none" xmlns="http://www.w3.org/2000/svg">
<path d="M52.0664 0H36.8804C35.1072 0 33.67 1.43716 33.67 3.21034C33.67 4.98352 35.1072 6.42068 36.8804 6.42068H41.2636V14.255H47.6843V6.42068H52.0674C53.8406 6.42068 55.2778 4.98352 55.2778 3.21034C55.2778 1.43716 53.8396 0 52.0664 0Z" fill="#0C6089"/>
<path d="M47.2766 49.8908L44.9641 20.9143C44.9159 20.3108 44.032 20.3108 43.9839 20.9143L41.6714 49.8908C40.2224 50.6142 39.0945 51.8759 38.5477 53.4179L19.1476 55.0402C18.559 55.0894 18.559 55.9509 19.1476 56.0001L38.5477 57.6224C39.484 60.2592 42.1197 62.0912 45.1428 61.7798C47.9733 61.4877 50.3254 59.2212 50.7085 56.4014C51.0926 53.5677 49.587 51.0433 47.2766 49.8908ZM44.4729 58.7514C42.688 58.7514 41.2422 57.3046 41.2422 55.5207C41.2422 53.7357 42.689 52.29 44.4729 52.29C46.2579 52.29 47.7036 53.7368 47.7036 55.5207C47.7047 57.3056 46.2579 58.7514 44.4729 58.7514Z" fill="#4D940E"/>
<path d="M136.96 82.5368H125.306C123.533 82.5368 122.096 81.0996 122.096 79.3265C122.096 77.5533 123.533 76.1161 125.306 76.1161H136.96C138.733 76.1161 140.17 77.5533 140.17 79.3265C140.17 81.0996 138.733 82.5368 136.96 82.5368Z" fill="#0C6089"/>
<path d="M125.307 58.731H116.223C114.45 58.731 113.013 57.2939 113.013 55.5207C113.013 53.7475 114.45 52.3104 116.223 52.3104H125.307C127.08 52.3104 128.517 53.7475 128.517 55.5207C128.517 57.2939 127.079 58.731 125.307 58.731Z" fill="#0C6089"/>
<path d="M132.683 12.882H57.0906C53.0883 11.6942 48.8507 11.0414 44.4739 11.0414C19.9469 11.0414 0 30.9991 0 55.5261C0 80.0424 19.9469 100 44.4739 100C48.8507 100 53.0776 99.358 57.0799 98.1701H85.363C87.1394 98.1701 88.5733 96.7362 88.5733 94.9598C88.5733 93.1834 87.1394 91.7495 85.363 91.7495H83.3726C82.0991 91.7495 80.9541 91.2358 80.1194 90.4011C79.2847 89.5664 78.7711 88.4107 78.7711 87.1479C78.7711 84.6011 80.8364 82.5358 83.3726 82.5358H111.945C113.71 82.5358 115.155 81.1018 115.155 79.3254C115.155 77.549 113.71 76.1151 111.945 76.1151H99.0925C94.2984 76.1151 90.4032 72.2199 90.4032 67.4257C90.4032 65.018 91.377 62.8564 92.9501 61.2833C94.5231 59.7102 96.6955 58.7364 99.0925 58.7364H103.919C105.695 58.7364 107.129 57.2918 107.129 55.5261C107.129 53.7497 105.695 52.3157 103.919 52.3157H100.098C94.7479 52.3157 90.4032 47.9711 90.4032 42.6098C90.4032 39.9345 91.4947 37.5054 93.2497 35.7504C95.0047 33.9954 97.4231 32.9146 100.098 32.9146H111.945C113.71 32.9146 115.155 31.4699 115.155 29.7042C115.155 27.9278 113.71 26.4939 111.945 26.4939H81.4035C79.4238 26.4939 77.8187 24.878 77.8187 22.8983C77.8187 21.9031 78.2253 21.0042 78.8674 20.3514C79.5201 19.7094 80.4083 19.3027 81.4035 19.3027H132.683C134.449 19.3027 135.894 17.8581 135.894 16.0924C135.894 14.316 134.449 12.882 132.683 12.882ZM82.5272 55.5261C82.5272 76.5003 65.4589 93.5793 44.4739 93.5793C23.489 93.5793 6.42069 76.5003 6.42069 55.5261C6.42069 34.5412 23.489 17.4621 44.4739 17.4621C65.4589 17.4621 82.5272 34.5412 82.5272 55.5261Z" fill="#0C6089"/>
</svg>
